<svg xmlns="http://www.w3.org/2000/svg" viewBox="0 0 356 121">
    <path stroke="white" fill="white" d="M22.6 98.3c0-1.8-.4-2.3-3-2.6V95h7.3v.7c-2.5.3-2.9.8-2.9 2.6v10.6c0 5.8-3.4 9.1-8.7 9.1-5.9 0-8.6-3.5-8.6-9.1V98.3c0-1.8-.4-2.3-2.7-2.6V95h8.6v.7c-2.3.3-2.7.8-2.7 2.6v10.3c0 5.2 2 7.9 6.1 7.9 4.4 0 6.5-2.9 6.5-7.9l.1-10.3zM64 98.3c0-1.8-.3-2.3-2.9-2.6V95h7.2v.7c-2.4.3-2.9.8-2.9 2.6v19.3h-2L51 98v16.4c0 1.8.3 2.3 2.9 2.6v.7h-7.2v-.7c2.4-.3 2.9-.8 2.9-2.6v-16c0-1.8-.5-2.3-2.9-2.6V95h6.6l10.6 17.1.1-13.8zM94 114.4c0 1.8.4 2.3 2.7 2.6v.7h-8.6v-.7c2.3-.3 2.7-.8 2.7-2.6v-16c0-1.8-.4-2.3-2.7-2.6V95h8.6v.7c-2.4.3-2.7.8-2.7 2.6v16.1zM118.8 97.7c-.4-1.1-.8-1.5-2.7-2V95h8.7v.7c-2.4.3-2.6 1.3-2 2.9l5.4 15.2h.1l4.9-14.7c.6-2 .5-3.1-2.1-3.4V95h7.3v.7c-2.2.3-2.8.6-3.2 2l-7 20.1h-1.9l-7.5-20.1zM162.7 105.6h2.9c2 0 3.2-.7 3.5-3.3h.9v7.8h-.9c-.3-2.6-1.5-3.3-3.5-3.3h-2.9v9.6h6c2.3 0 3.9-1.4 4.2-4h.9l-.3 5.2h-16.7v-.6c2.3-.3 2.7-.8 2.7-2.6v-16c0-1.8-.4-2.3-2.7-2.6v-.7h16.4l.2 5.3h-1c-.3-2.6-1.8-4-4-4h-5.7v9.4-.2zM205.2 107.3l4.8 6.7c.9 1.3 2.1 2.3 3.5 3v.7h-4.7c-1-.9-1.9-1.9-2.6-3.1l-4.5-6.9h-2.2v6.6c0 1.8.4 2.3 2.6 2.6v.7h-8.6v-.6c2.3-.3 2.7-.8 2.7-2.6v-16c0-1.8-.4-2.3-2.7-2.6v-.7h9.6c4.9 0 7.4 2.5 7.4 6.1.2 2.5-1.1 5.2-5.3 6.1zm-3.4-.8c4.4 0 5.5-2.3 5.5-5.1 0-2.6-1.1-5.2-4.9-5.2h-2.9v10.3h2.3zM247.4 111.3c0 4.1-3.1 6.6-7.5 6.6-2.3 0-4.6-.6-6.6-1.6l-.3-5.7h.9c.5 5.1 3.5 6.1 5.9 6.1 2.2.2 4.1-1.5 4.3-3.7v-.6c0-2.7-2.5-4.1-4.9-5.1-3.3-1.4-5.9-3.2-5.9-6.7s2.7-6 7.1-6c2.1 0 4.1.5 6 1.4l.3 5.4h-.9c-.6-3.9-2.5-5.6-5.2-5.6-2.3 0-3.9 1.1-3.9 3.6s1.9 3.8 4.2 4.7c3.2 1.4 6.5 3.5 6.5 7.2zM273.1 114.4c0 1.8.4 2.3 2.6 2.6v.7h-8.6v-.7c2.3-.3 2.7-.8 2.7-2.6v-16c0-1.8-.4-2.3-2.7-2.6V95h8.6v.7c-2.3.3-2.6.8-2.6 2.6v16.1zM313.1 95l.2 5.3h-.9c-.3-2.6-1.8-4-4-4h-2.3v18.1c0 1.8.4 2.3 2.6 2.6v.7h-8.6v-.7c2.3-.3 2.7-.8 2.7-2.6V96.2h-2.3c-2.3 0-3.7 1.4-4 4h-.9l.2-5.3 17.3.1zM334.8 97.7c-.5-1-1.3-1.7-2.3-2V95h7.9v.7c-2.4.3-2 1.4-1.2 2.9l4.6 8.9h.1l4.2-8.8c.8-1.6.5-2.8-1.8-3.1v-.7h6.6v.7c-1.6.3-2.3.6-2.9 2l-5.2 10.9v5.7c0 1.8.4 2.3 2.6 2.6v.7h-8.6v-.7c2.3-.3 2.7-.8 2.7-2.6V110l-6.7-12.3zM55.7 75.3v-2.8l6.9-1.2V31.6h-6.3v-2.8l18.4-4.5.2 8c1.7-1.4 5.9-5.5 9.7-6.5 4.2-1.1 7.6.6 8.6 4.1.4 1.7.6 3.5.4 5.2 0 .2-12.3 5.1-12.3 5.1l.1-.4c.4-2.8-.1-4.8-1.3-5.4-.2-.1-.5-.2-.8-.2-1.5 0-3.7 1.3-4.4 1.8l-.1.1v35.1l6.7 1.2v2.8H55.7v.1zM303.4 17.4c-4.2 0-7.6-3.4-7.6-7.6 0-2 .8-4 2.2-5.4 2.9-3 7.6-3 10.6-.1l.1.1c1.4 1.4 2.2 3.4 2.2 5.4.1 4.2-3.3 7.6-7.5 7.6m-12.8 57.9v-2.9l6.8-1.2V31.6h-6.3v-2.8l18.4-4.4v46.8l6.5 1.2v2.8l-25.4.1zM336.2 76.3c-5.2-.1-10.4-1.3-15.1-3.5l-.1-.1-1-13.5h3.4v.2c1.4 8.1 5.7 12.4 12.4 12.4 3.9.3 7.3-2.7 7.6-6.6v-.9c0-2-.9-4-2.5-5.3-1.5-1.4-3.9-2.7-7.5-4.2-8.7-3.6-13.7-7.3-13.7-15.7-.1-3.8 1.6-7.5 4.6-9.9 3.1-2.6 7.7-3.9 13.1-3.9 4.9 0 9.7 1.1 14.2 3l.1.1 1 12.9h-3.3v-.2c-1.8-7.3-6.1-11.5-11.9-11.5-3.4 0-7 2-7 6.4 0 5 4.6 6.7 8.6 8.2 4.3 1.7 8.8 3.7 11.8 6.5 2.9 2.6 4.5 6.3 4.4 10.2 0 2.2-.5 4.4-1.5 6.3s-2.3 3.5-4 4.8c-3.8 2.8-8.5 4.2-13.2 4.1M132.7 70h-8V38.7c.2-3.7-1.3-7.3-3.9-9.8-2.5-2.3-6.2-3.5-10.5-3.5-4.7 0-10.5 1.2-13.7 3.2l-.2.1 1.7 3.1.2-.1c4.7-1.8 9.6-1.2 11.6.7 2.1 1.9 2.9 5 2.9 9.6v4.2c-2.7 1-7.1 2.5-11.3 4.1-6.3 2.4-15 5.3-14.9 14 .1 3.1 1.3 6.1 3.4 8.4 4.6 4.9 12.5 4.6 18.7-.4 1.2-1 2.6-2.2 4-3.7.2 5 2.8 7.6 7.6 7.6s7.8-1.3 12.4-3.9l.1-.1-.1-2.2zm-28.5-2c-4.4 0-6-5-5.3-8.5.8-4.1 4.4-5.2 7.2-6.4 2.4-1 5.1-2.2 6.5-2.8V65c-2.9 2-5.1 3-8.4 3zM168.6 75.3V40.6c0-4.7-2.5-7.3-6.8-7.3-4.3.1-8.5 1.3-12.1 3.5v34.4l6.9 1.2v2.8h-19V31.6h-6.3v-2.8l18.1-4.5.3 8.7c6.9-5.3 13.1-7.7 18.6-7.7 1.5 0 2.9.2 4.3.7 2.4.8 4.5 2.4 5.8 4.6 1.7 2.9 2.5 6.2 2.4 9.5v31.1l6.9 1.2v2.8h-19.1v.1zM28.4 71c8.5 0 12.9-4.8 12.9-14.3 0-7.9-4.2-13-11.8-14.2-2.3-.4-4.6-.6-7-.6l-1.8-4h.4c2.6.1 5.2-.1 7.8-.6 6.5-1.3 9.5-5.3 9.5-12.7 0-8.6-4.2-13.4-11.9-13.4h-7.1V71h9zm-28 4.3v-2.8l6.9-1.2V11L.4 9.8V6.9h28c7 0 12.8 1.6 16.8 4.7 3.7 2.9 5.9 7.3 5.8 12.1 0 3.8-1.4 7.4-3.9 10.1s-5.8 4.7-9.3 5.7c5.5 1.4 9.7 3.8 12.4 7.1 2.5 3 3.8 6.7 3.8 10.6.2 5-2 9.9-5.8 13.1-3.9 3.3-9.7 5-16.8 5H.4zM235.5 71.2V0l-18.4 5.8v3.1l6.3-.5v19.7c-3.1-1.8-6.6-2.7-10.1-2.7-9.9 0-24.5 7.4-24.5 25.5 0 12.3 6 25.4 20.2 25.4 4.8 0 9.5-1.9 12.9-5.4l.1-.1-1.2-3-.2.1c-1.6.9-3.5 1.3-5.4 1.2-7.9 0-13.6-5.9-14.1-18.4-.5-14.5 5.4-21.1 12.6-21.1 2.2-.1 4.4.8 6 2.3 2.2 2.1 3.6 5.7 3.6 10.6V75.2h19v-2.8l-6.8-1.2zM268.4 29.7c2.3-.1 4.4.9 5.8 2.7 1.7 2.2 2.2 5.6 1.2 9.9H256c1.5-8.1 5.8-12.6 12.4-12.6m16.2 31.1c-2.5 3.9-7.4 6.3-12.8 6.3-4.1.1-8-1.5-10.9-4.4-3.4-3.6-5.2-8.9-5-15.5h31.2V47c1-6.8-.1-11.9-3.3-15.7s-8.3-5.9-14.9-5.9c-6.3 0-12.4 2.4-17 6.7-2.4 2.3-4.4 5.1-5.7 8.1-1.5 3.5-2.2 7.3-2.2 11.1-.1 6.4 2.1 12.6 6.2 17.4 4.4 4.9 10.5 7.5 17.7 7.5 4.6 0 9-1.6 12.5-4.5 2.9-2.4 5.2-5.6 6.6-9.1l-2.4-1.8z"/>
</svg>
